<?xml version="1.0" encoding="UTF-8"?>
<!DOCTYPE svg PUBLIC "-//W3C//DTD SVG 1.1//EN" "http://www.w3.org/Graphics/SVG/1.1/DTD/svg11.dtd">
<svg xmlns="http://www.w3.org/2000/svg" version="1.1" width="2048px" height="2048px" style="shape-rendering:geometricPrecision; text-rendering:geometricPrecision; image-rendering:optimizeQuality; fill-rule:evenodd; clip-rule:evenodd" xmlns:xlink="http://www.w3.org/1999/xlink">
<g><path style="opacity:0.996" fill="#000000" d="M 965.5,-0.5 C 1003.83,-0.5 1042.17,-0.5 1080.5,-0.5C 1328.53,16.4245 1543.2,108.258 1724.5,275C 1920.36,462.95 2028.02,693.45 2047.5,966.5C 2047.5,1004.83 2047.5,1043.17 2047.5,1081.5C 2028.55,1342.52 1928.22,1565.68 1746.5,1751C 1561.69,1930.18 1339.69,2029.01 1080.5,2047.5C 1041.5,2047.5 1002.5,2047.5 963.5,2047.5C 703.197,2028.13 480.697,1927.8 296,1746.5C 155.389,1602.92 63.3892,1432.25 20,1234.5C 10.203,1183.76 3.3697,1132.76 -0.5,1081.5C -0.5,1042.83 -0.5,1004.17 -0.5,965.5C 15.1297,737.248 95.2963,535.915 240,361.5C 430.844,142.162 672.678,21.495 965.5,-0.5 Z M 1448.5,575.5 C 1469.94,576.04 1491.27,577.873 1512.5,581C 1518.17,582.667 1523.83,584.333 1529.5,586C 1530.79,587.41 1531.95,588.91 1533,590.5C 1534.66,632.416 1534.99,674.416 1534,716.5C 1532.82,718.357 1531.15,719.357 1529,719.5C 1502.76,716.479 1476.6,716.979 1450.5,721C 1431.89,724.621 1419.06,735.121 1412,752.5C 1408.41,762.206 1406.07,772.206 1405,782.5C 1403.59,807.138 1403.09,831.805 1403.5,856.5C 1444.83,856.333 1486.17,856.5 1527.5,857C 1528.7,857.903 1529.53,859.069 1530,860.5C 1530.67,897.833 1530.67,935.167 1530,972.5C 1529.17,973.333 1528.33,974.167 1527.5,975C 1486.23,976.483 1444.89,976.983 1403.5,976.5C 1404.45,1125.17 1404.62,1273.83 1404,1422.5C 1403.6,1425.23 1402.1,1427.07 1399.5,1428C 1351.83,1428.67 1304.17,1428.67 1256.5,1428C 1254.92,1427.29 1253.42,1426.46 1252,1425.5C 1250.67,1275.84 1250.17,1126.17 1250.5,976.5C 1221.49,976.012 1192.49,975.178 1163.5,974C 1161.71,973.215 1160.21,972.049 1159,970.5C 1157.35,933.585 1157.01,896.585 1158,859.5C 1158.83,858 1160,856.833 1161.5,856C 1190.83,855.864 1220.17,855.864 1249.5,856C 1249.73,817.074 1252.23,778.24 1257,739.5C 1270.41,675.802 1305.24,627.969 1361.5,596C 1389.21,583.322 1418.21,576.488 1448.5,575.5 Z M 635.5,645.5 C 691.19,645.038 746.857,645.538 802.5,647C 851.087,651.83 897.087,664.83 940.5,686C 1026.81,737.722 1069.14,814.556 1067.5,916.5C 1064.29,1027.22 1012.63,1105.05 912.5,1150C 882.287,1161.18 851.287,1169.51 819.5,1175C 804.522,1176.85 789.522,1178.52 774.5,1180C 739.496,1180.61 704.496,1180.45 669.5,1179.5C 669.991,1259.56 669.491,1339.56 668,1419.5C 666.457,1421.38 664.624,1422.88 662.5,1424C 614.167,1424.67 565.833,1424.67 517.5,1424C 515.333,1423.17 513.833,1421.67 513,1419.5C 512.333,1163.83 512.333,908.167 513,652.5C 513.833,651 515,649.833 516.5,649C 556.337,648.103 596.003,646.936 635.5,645.5 Z"/></g>
<g><path style="opacity:0.988" fill="#000000" d="M 750.5,786.5 C 780.797,786.493 810.13,791.659 838.5,802C 886.629,824.863 909.629,863.197 907.5,917C 906.219,960.26 887.219,992.927 850.5,1015C 820.838,1029.28 789.504,1036.95 756.5,1038C 732.833,1038.67 709.167,1038.67 685.5,1038C 680.25,1037.81 675.083,1037.31 670,1036.5C 669.5,954.167 669.333,871.834 669.5,789.5C 696.633,788.067 723.633,787.067 750.5,786.5 Z"/></g>
</svg>
